<svg width="33" height="25" viewBox="0 0 33 25" fill="none" xmlns="http://www.w3.org/2000/svg">
<path d="M16.973 12.8235C17.7745 12.1443 18.4173 11.3042 18.8579 10.3603C19.2985 9.41641 19.5265 8.39075 19.5265 7.35294C19.5265 5.40282 18.7353 3.53257 17.3268 2.15363C15.9184 0.774683 14.0081 2.63104e-07 12.0163 2.63104e-07C10.0245 2.63104e-07 8.11424 0.774683 6.7058 2.15363C5.29737 3.53257 4.50612 5.40282 4.50612 7.35294C4.50611 8.39075 4.73413 9.41641 5.17472 10.3603C5.6153 11.3042 6.25813 12.1443 7.05959 12.8235C4.95694 13.7557 3.17301 15.2611 1.92108 17.1596C0.669151 19.0582 0.00221078 21.2696 0 23.5294C0 23.9194 0.15825 24.2935 0.439937 24.5693C0.721624 24.8451 1.10367 25 1.50204 25C1.90041 25 2.28245 24.8451 2.56414 24.5693C2.84583 24.2935 3.00408 23.9194 3.00408 23.5294C3.00408 21.1893 3.95358 18.945 5.6437 17.2902C7.33383 15.6355 9.62612 14.7059 12.0163 14.7059C14.4065 14.7059 16.6988 15.6355 18.3889 17.2902C20.0791 18.945 21.0286 21.1893 21.0286 23.5294C21.0286 23.9194 21.1868 24.2935 21.4685 24.5693C21.7502 24.8451 22.1322 25 22.5306 25C22.929 25 23.311 24.8451 23.5927 24.5693C23.8744 24.2935 24.0326 23.9194 24.0326 23.5294C24.0304 21.2696 23.3635 19.0582 22.1116 17.1596C20.8596 15.2611 19.0757 13.7557 16.973 12.8235ZM12.0163 11.7647C11.1251 11.7647 10.2539 11.506 9.51285 11.0212C8.77182 10.5364 8.19426 9.84739 7.85321 9.04125C7.51215 8.23511 7.42291 7.34805 7.59678 6.49225C7.77065 5.63645 8.19982 4.85035 8.83001 4.23335C9.4602 3.61636 10.2631 3.19618 11.1372 3.02595C12.0113 2.85572 12.9173 2.94309 13.7407 3.277C14.5641 3.61092 15.2679 4.17638 15.763 4.9019C16.2582 5.62741 16.5224 6.48038 16.5224 7.35294C16.5224 8.52301 16.0477 9.64516 15.2026 10.4725C14.3576 11.2999 13.2114 11.7647 12.0163 11.7647ZM26.6462 12.2353C27.6074 11.1755 28.2354 9.86626 28.4543 8.4652C28.6733 7.06415 28.4741 5.63099 27.8805 4.33824C27.287 3.04548 26.3244 1.94823 25.1088 1.17856C23.8932 0.408897 22.4762 -0.000378824 21.0286 2.63104e-07C20.6302 2.63104e-07 20.2481 0.154937 19.9665 0.430726C19.6848 0.706514 19.5265 1.08056 19.5265 1.47059C19.5265 1.86061 19.6848 2.23466 19.9665 2.51045C20.2481 2.78624 20.6302 2.94118 21.0286 2.94118C22.2236 2.94118 23.3698 3.40599 24.2149 4.23335C25.0599 5.06072 25.5347 6.18287 25.5347 7.35294C25.5325 8.12535 25.3233 8.88368 24.9279 9.55209C24.5326 10.2205 23.9649 10.7756 23.2816 11.1618C23.0589 11.2875 22.8729 11.4672 22.7414 11.6834C22.6099 11.8997 22.5373 12.1454 22.5306 12.3971C22.5243 12.6467 22.5831 12.8938 22.7013 13.1151C22.8196 13.3364 22.9934 13.5245 23.2065 13.6618L23.7923 14.0441L23.9876 14.1471C25.7981 14.9878 27.3256 16.3176 28.39 17.9799C29.4545 19.6421 30.0116 21.5676 29.9957 23.5294C29.9957 23.9194 30.154 24.2935 30.4357 24.5693C30.7174 24.8451 31.0994 25 31.4978 25C31.8961 25 32.2782 24.8451 32.5599 24.5693C32.8416 24.2935 32.9998 23.9194 32.9998 23.5294C33.0121 21.2727 32.4348 19.0504 31.3227 17.0736C30.2107 15.0969 28.6009 13.4313 26.6462 12.2353Z" fill="#1882A4"/>
</svg>
