<svg width="18" height="31" viewBox="0 0 18 31" fill="none" xmlns="http://www.w3.org/2000/svg">
<path d="M12 13.95H10.5V7.75H13.5C13.8978 7.75 14.2794 7.9133 14.5607 8.20398C14.842 8.49467 15 8.88891 15 9.3C15 9.71109 15.158 10.1053 15.4393 10.396C15.7206 10.6867 16.1022 10.85 16.5 10.85C16.8978 10.85 17.2794 10.6867 17.5607 10.396C17.842 10.1053 18 9.71109 18 9.3C18 8.06674 17.5259 6.884 16.682 6.01195C15.8381 5.13991 14.6935 4.65 13.5 4.65H10.5V1.55C10.5 1.13891 10.342 0.744666 10.0607 0.453984C9.77936 0.163303 9.39782 0 9 0C8.60218 0 8.22064 0.163303 7.93934 0.453984C7.65804 0.744666 7.5 1.13891 7.5 1.55V4.65H6C4.4087 4.65 2.88258 5.30321 1.75736 6.46594C0.632141 7.62866 0 9.20566 0 10.85C0 12.4943 0.632141 14.0713 1.75736 15.2341C2.88258 16.3968 4.4087 17.05 6 17.05H7.5V23.25H4.5C4.10218 23.25 3.72064 23.0867 3.43934 22.796C3.15804 22.5053 3 22.1111 3 21.7C3 21.2889 2.84196 20.8947 2.56066 20.604C2.27936 20.3133 1.89782 20.15 1.5 20.15C1.10218 20.15 0.720645 20.3133 0.43934 20.604C0.158036 20.8947 0 21.2889 0 21.7C0 22.9333 0.474106 24.116 1.31802 24.988C2.16193 25.8601 3.30653 26.35 4.5 26.35H7.5V29.45C7.5 29.8611 7.65804 30.2553 7.93934 30.546C8.22064 30.8367 8.60218 31 9 31C9.39782 31 9.77936 30.8367 10.0607 30.546C10.342 30.2553 10.5 29.8611 10.5 29.45V26.35H12C13.5913 26.35 15.1174 25.6968 16.2426 24.5341C17.3679 23.3713 18 21.7943 18 20.15C18 18.5057 17.3679 16.9287 16.2426 15.7659C15.1174 14.6032 13.5913 13.95 12 13.95ZM7.5 13.95H6C5.20435 13.95 4.44129 13.6234 3.87868 13.042C3.31607 12.4607 3 11.6722 3 10.85C3 10.0278 3.31607 9.23933 3.87868 8.65797C4.44129 8.07661 5.20435 7.75 6 7.75H7.5V13.95ZM12 23.25H10.5V17.05H12C12.7956 17.05 13.5587 17.3766 14.1213 17.958C14.6839 18.5393 15 19.3278 15 20.15C15 20.9722 14.6839 21.7607 14.1213 22.342C13.5587 22.9234 12.7956 23.25 12 23.25Z" fill="#1882A4"/>
</svg>
