<svg width="33" height="24" viewBox="0 0 33 24" fill="none" xmlns="http://www.w3.org/2000/svg">
<path d="M10.512 10.5001H22.4934C22.7146 10.4986 22.9328 10.4481 23.1322 10.3522C23.3316 10.2562 23.5073 10.1172 23.6466 9.94512C23.793 9.77642 23.8999 9.57708 23.9595 9.36168C24.0191 9.14628 24.0299 8.92026 23.9911 8.70015L22.4934 1.20028C22.4234 0.856376 22.2352 0.547949 21.9615 0.328691C21.6879 0.109433 21.3461 -0.00677161 20.9957 0.000305153H12.0097C11.6593 -0.00677161 11.3175 0.109433 11.0439 0.328691C10.7702 0.547949 10.582 0.856376 10.512 1.20028L9.01432 8.70015C8.97145 8.91804 8.97743 9.14275 9.03182 9.35805C9.08621 9.57335 9.18765 9.77387 9.32883 9.94512C9.47137 10.1211 9.65188 10.2625 9.8568 10.3586C10.0617 10.4548 10.2857 10.5031 10.512 10.5001ZM13.2378 3.00025H19.7676L20.6663 7.50017H12.3392L13.2378 3.00025ZM31.4795 14.7C31.4095 14.3561 31.2212 14.0477 30.9476 13.8284C30.6739 13.6092 30.3322 13.493 29.9818 13.5001H20.9957C20.6454 13.493 20.3036 13.6092 20.03 13.8284C19.7563 14.0477 19.5681 14.3561 19.4981 14.7L18.0004 22.1999C17.9575 22.4178 17.9635 22.6425 18.0179 22.8578C18.0723 23.0731 18.1737 23.2736 18.3149 23.4449C18.4574 23.6209 18.6379 23.7623 18.8429 23.8584C19.0478 23.9545 19.2718 24.0029 19.4981 23.9999H31.4795C31.7007 23.9984 31.9188 23.9479 32.1182 23.8519C32.3176 23.756 32.4933 23.6169 32.6327 23.4449C32.7791 23.2762 32.886 23.0768 32.9456 22.8614C33.0052 22.646 33.016 22.42 32.9772 22.1999L31.4795 14.7ZM21.3252 20.9999L22.2238 16.5H28.7537L29.6523 20.9999H21.3252ZM12.0097 13.5001H3.02361C2.67323 13.493 2.33147 13.6092 2.05782 13.8284C1.78417 14.0477 1.59595 14.3561 1.52593 14.7L0.0282548 22.1999C-0.0146145 22.4178 -0.00863832 22.6425 0.0457518 22.8578C0.100142 23.0731 0.201589 23.2736 0.342767 23.4449C0.485306 23.6209 0.665816 23.7623 0.870739 23.8584C1.07566 23.9545 1.29967 24.0029 1.52593 23.9999H13.5074C13.7286 23.9984 13.9467 23.9479 14.1461 23.8519C14.3455 23.756 14.5212 23.6169 14.6606 23.4449C14.807 23.2762 14.9139 23.0768 14.9735 22.8614C15.0331 22.646 15.0439 22.42 15.005 22.1999L13.5074 14.7C13.4373 14.3561 13.2491 14.0477 12.9755 13.8284C12.7018 13.6092 12.3601 13.493 12.0097 13.5001ZM3.3531 20.9999L4.25171 16.5H10.7816L11.6802 20.9999H3.3531Z" fill="#1882A4"/>
</svg>
